<?xml version="1.0" standalone="no"?>
<!DOCTYPE svg PUBLIC "-//W3C//DTD SVG 20010904//EN"
 "http://www.w3.org/TR/2001/REC-SVG-20010904/DTD/svg10.dtd">
<svg version="1.0" xmlns="http://www.w3.org/2000/svg"
 width="1402.000000pt" height="2047.000000pt" viewBox="0 0 1402.000000 2047.000000"
 preserveAspectRatio="xMidYMid meet">

<g transform="translate(0.000000,2047.000000) scale(0.100000,-0.100000)"
fill="#000000" stroke="none">
<path d="M2768 18420 c-427 -72 -708 -439 -708 -925 0 -490 281 -848 720 -916
96 -15 305 -6 385 16 302 84 502 324 549 658 l5 37 -189 0 -190 0 -6 -27 c-11
-53 -37 -128 -56 -167 -31 -62 -113 -141 -170 -166 -101 -43 -275 -41 -375 5
-118 53 -215 183 -260 345 -27 101 -25 339 5 445 49 170 131 278 258 337 54
25 83 32 158 36 146 7 255 -34 341 -130 38 -42 85 -130 85 -160 0 -17 16 -18
190 -18 219 0 202 -11 170 114 -31 122 -82 209 -180 307 -72 73 -100 94 -182
133 -124 61 -243 86 -393 85 -60 -1 -131 -5 -157 -9z"/>
<path d="M7220 18245 l0 -145 175 0 175 0 0 145 0 145 -175 0 -175 0 0 -145z"/>
<path d="M8222 18379 c-104 -20 -195 -84 -247 -173 -31 -53 -55 -158 -55 -243
l0 -63 -105 0 -105 0 0 -120 0 -120 105 0 105 0 0 -525 0 -525 180 0 180 0 0
525 0 525 120 0 120 0 0 120 0 120 -120 0 -120 0 0 66 c0 76 20 126 56 143 14
6 65 11 114 11 l90 0 0 129 0 128 -46 7 c-63 8 -219 6 -272 -5z"/>
<path d="M8760 18245 l0 -145 180 0 180 0 0 145 0 145 -180 0 -180 0 0 -145z"/>
<path d="M11580 18069 l0 -320 -48 49 c-53 54 -128 97 -207 118 -67 18 -207
18 -280 -1 -204 -53 -357 -238 -406 -489 -6 -28 -10 -103 -10 -167 -1 -348
173 -611 442 -669 74 -16 259 -8 319 14 63 23 140 79 175 127 l30 41 3 -81 3
-81 169 0 170 0 0 890 0 890 -180 0 -180 0 0 -321z m-167 -427 c57 -26 120
-97 145 -165 31 -83 44 -205 32 -305 -26 -204 -114 -312 -267 -328 -216 -23
-358 170 -340 460 13 199 86 313 225 353 58 16 150 9 205 -15z"/>
<path d="M6390 18090 l0 -190 -105 0 -105 0 0 -120 0 -120 104 0 104 0 4 -422
c3 -417 3 -424 26 -473 31 -68 63 -98 135 -131 58 -26 73 -28 224 -32 89 -2
178 -1 198 2 l35 7 0 133 0 132 -92 0 c-171 0 -168 -9 -168 439 l0 345 130 0
130 0 0 120 0 120 -130 0 -130 0 0 190 0 190 -180 0 -180 0 0 -190z"/>
<path d="M4290 17914 c-180 -38 -350 -171 -429 -335 -59 -122 -74 -204 -68
-364 8 -207 62 -342 186 -465 119 -118 266 -172 467 -172 128 0 215 18 314 65
114 53 225 185 275 326 l14 41 -153 0 -153 0 -24 -37 c-94 -144 -332 -177
-477 -66 -42 31 -88 127 -97 201 l-7 52 467 0 468 0 -6 118 c-6 140 -23 208
-79 322 -78 160 -228 280 -395 315 -85 18 -217 18 -303 -1z m265 -268 c74 -31
136 -119 151 -215 l7 -41 -288 0 -287 0 7 38 c9 51 41 122 68 150 34 37 102
73 154 82 57 10 146 3 188 -14z"/>
<path d="M5849 17911 c-108 -35 -225 -135 -265 -226 -12 -27 -13 -18 -14 93
l0 122 -170 0 -170 0 0 -645 0 -645 179 0 180 0 3 368 c3 353 4 369 26 423 29
73 77 128 143 164 52 29 59 30 177 30 l122 0 -2 165 -3 165 -75 2 c-50 2 -93
-4 -131 -16z"/>
<path d="M9728 17915 c-238 -60 -406 -230 -469 -473 -26 -98 -27 -277 -4 -378
55 -239 228 -416 460 -469 78 -18 252 -22 330 -6 190 37 321 136 405 306 60
121 66 115 -108 115 l-148 0 -30 -43 c-63 -89 -176 -135 -301 -124 -161 15
-250 106 -270 274 l-6 53 468 0 468 0 -6 113 c-16 301 -163 525 -405 615 -56
20 -89 25 -197 28 -91 3 -147 -1 -187 -11z m290 -278 c64 -30 120 -115 137
-209 l7 -38 -286 0 c-324 0 -299 -8 -271 86 18 61 73 127 128 155 81 42 203
45 285 6z"/>
<path d="M7220 17255 l0 -645 175 0 175 0 0 645 0 645 -175 0 -175 0 0 -645z"/>
<path d="M8760 17255 l0 -645 180 0 180 0 0 645 0 645 -180 0 -180 0 0 -645z"/>
<path d="M6569 15724 c-808 -73 -1577 -340 -2254 -782 -553 -360 -1045 -847
-1412 -1397 -741 -1111 -998 -2466 -718 -3780 284 -1328 1117 -2488 2295
-3196 978 -587 2147 -815 3286 -640 369 57 706 148 1056 287 635 251 1188 614
1668 1094 312 312 546 611 773 990 92 154 272 522 340 695 324 828 420 1706
282 2590 -146 933 -572 1825 -1209 2527 -859 948 -2017 1517 -3290 1618 -175
14 -639 11 -817 -6z m911 -658 c291 -35 606 -103 860 -186 661 -218 1274 -602
1749 -1095 695 -724 1103 -1622 1192 -2625 23 -265 11 -671 -27 -945 -166
-1181 -798 -2218 -1778 -2914 -580 -412 -1258 -668 -2006 -758 -184 -22 -693
-25 -880 -5 -862 93 -1634 413 -2304 958 -253 206 -573 549 -767 824 -926
1308 -1053 2997 -333 4421 672 1329 1983 2210 3479 2338 160 14 653 6 815 -13z"/>
<path d="M4940 10805 l0 -2815 1430 0 c938 0 1464 4 1528 11 575 62 1027 350
1285 819 145 265 217 622 188 934 -36 373 -165 658 -397 876 -148 138 -333
241 -539 300 -60 17 -117 34 -125 36 -8 3 37 32 107 68 66 35 150 83 185 108
264 189 448 479 513 810 9 46 19 151 22 233 9 251 -31 452 -131 660 -70 145
-157 265 -276 379 -223 214 -428 306 -790 356 -266 36 -408 40 -1717 40
l-1283 0 0 -2815z m2591 2175 c375 -38 614 -156 741 -366 47 -76 93 -214 109
-322 17 -119 6 -375 -19 -468 -90 -330 -325 -517 -742 -589 -168 -29 -364 -35
-1142 -35 l-788 0 0 895 0 895 869 0 c533 0 909 -4 972 -10z m254 -2438 c321
-61 510 -157 661 -334 208 -244 244 -726 79 -1060 -129 -260 -354 -428 -671
-499 -99 -23 -103 -23 -1131 -26 l-1033 -4 0 976 0 976 993 -4 c959 -4 996 -4
1102 -25z"/>
<path d="M11577 5809 c-96 -15 -191 -97 -223 -192 -35 -104 2 -248 79 -313 81
-68 199 -92 295 -60 200 67 262 329 114 482 -65 67 -165 98 -265 83z m147 -53
c52 -22 102 -72 126 -128 18 -41 21 -66 18 -123 -4 -91 -40 -155 -112 -200
-43 -26 -59 -30 -120 -30 -53 1 -81 6 -113 23 -178 94 -171 369 12 453 48 22
142 25 189 5z"/>
<path d="M11520 5521 l0 -171 25 0 c24 0 25 2 25 75 l0 75 29 0 c25 0 35 -10
76 -75 41 -66 50 -75 76 -75 l29 0 -46 69 c-43 66 -49 91 -20 91 7 0 22 10 34
23 28 30 30 95 3 128 -18 22 -28 24 -125 27 l-106 4 0 -171z m178 113 c12 -8
22 -26 22 -39 0 -35 -36 -55 -97 -55 l-53 0 0 55 0 55 53 0 c31 0 61 -6 75
-16z"/>
<path d="M2080 4505 l0 -325 4930 0 4930 0 -2 323 -3 322 -4927 3 -4928 2 0
-325z"/>
<path d="M2523 3346 c-286 -66 -463 -312 -463 -647 0 -192 61 -359 174 -473
114 -116 230 -166 406 -173 181 -8 301 32 416 139 89 83 164 239 164 340 l0
28 -130 0 -129 0 -11 -42 c-42 -166 -145 -247 -299 -236 -203 15 -314 163
-315 418 0 231 96 386 261 420 147 31 295 -42 338 -166 l13 -39 132 -3 133 -3
-6 38 c-23 168 -160 325 -334 383 -87 28 -259 36 -350 16z"/>
<path d="M9570 3230 l0 -100 125 0 125 0 0 100 0 100 -125 0 -125 0 0 -100z"/>
<path d="M8948 3123 l-3 -138 -77 -3 -78 -3 0 -79 0 -79 78 -3 77 -3 5 -310
c5 -285 7 -313 24 -340 50 -75 115 -97 282 -93 l119 3 3 96 3 96 -70 -1 c-60
-1 -74 2 -93 22 -23 22 -23 25 -23 275 l0 252 93 3 92 3 0 79 0 79 -92 3 -93
3 -3 138 -3 137 -119 0 -119 0 -3 -137z"/>
<path d="M3710 3004 c-52 -10 -146 -48 -186 -75 -94 -64 -152 -156 -178 -282
-20 -94 -20 -142 -1 -230 40 -191 160 -314 342 -352 86 -19 140 -18 228 0 237
50 368 236 352 499 -7 115 -27 179 -80 258 -49 72 -138 138 -220 163 -52 16
-210 28 -257 19z m209 -217 c26 -18 48 -45 68 -84 26 -54 28 -67 28 -173 0
-104 -3 -121 -27 -172 -82 -176 -334 -150 -389 40 -8 26 -14 89 -13 142 1 139
40 219 129 262 57 27 151 20 204 -15z"/>
<path d="M4880 3001 c-79 -25 -152 -79 -188 -140 l-27 -46 -3 88 -3 87 -114 0
-115 0 0 -455 0 -455 125 0 125 0 0 243 c0 265 6 309 55 373 43 56 96 78 193
78 l83 1 -3 115 -3 115 -50 2 c-27 1 -61 -2 -75 -6z"/>
<path d="M5515 2993 c-52 -15 -104 -50 -142 -93 l-22 -25 -1 53 0 52 -120 0
-120 0 0 -610 0 -610 125 0 125 0 0 215 0 215 34 -38 c68 -75 189 -113 299
-94 211 34 337 209 337 467 -1 255 -119 431 -318 474 -70 15 -136 13 -197 -6z
m141 -193 c80 -39 124 -136 124 -275 0 -193 -85 -296 -232 -282 -98 9 -154 61
-183 172 -28 110 -12 248 40 326 48 74 164 101 251 59z"/>
<path d="M6490 3004 c-105 -21 -189 -65 -253 -133 -59 -63 -95 -136 -113 -228
-18 -95 -18 -136 2 -231 38 -186 160 -309 343 -348 36 -7 86 -14 111 -14 66 0
177 26 236 55 109 54 198 177 225 313 14 76 7 216 -16 289 -37 123 -156 241
-278 278 -52 16 -211 28 -257 19z m209 -217 c26 -18 48 -45 68 -84 26 -54 28
-67 28 -173 0 -106 -2 -119 -28 -173 -35 -70 -82 -105 -155 -114 -78 -9 -135
11 -181 63 -49 56 -66 116 -66 229 0 145 42 228 135 270 52 23 150 14 199 -18z"/>
<path d="M7660 3001 c-79 -25 -152 -79 -188 -140 l-27 -46 -3 88 -3 87 -114 0
-115 0 0 -455 0 -455 119 0 118 0 5 248 c5 221 7 253 27 303 39 101 105 143
229 144 l83 0 -3 115 -3 115 -50 2 c-27 1 -61 -2 -75 -6z"/>
<path d="M8160 2999 c-87 -14 -196 -73 -233 -126 -37 -51 -55 -96 -56 -135
l-1 -28 124 0 124 0 6 34 c8 42 53 83 102 92 19 3 62 4 96 2 53 -4 65 -9 89
-36 20 -23 29 -43 29 -68 0 -79 -33 -98 -218 -124 -163 -23 -221 -39 -283 -78
-128 -82 -135 -310 -13 -410 97 -80 280 -92 422 -27 31 14 67 35 79 47 l22 21
6 -29 c4 -16 8 -35 11 -41 2 -10 37 -13 128 -13 l125 0 -11 33 c-7 19 -14 173
-17 372 -4 215 -11 349 -18 366 -54 124 -272 187 -513 148z m270 -656 c-13
-45 -59 -96 -103 -112 -35 -14 -137 -14 -170 -2 -45 17 -67 51 -67 102 0 87
46 120 197 145 54 8 109 21 123 27 l25 12 3 -65 c2 -36 -2 -84 -8 -107z"/>
<path d="M10328 2995 c-83 -21 -143 -52 -202 -106 -96 -88 -140 -203 -139
-364 1 -115 22 -196 73 -274 110 -173 336 -241 563 -171 121 38 219 132 268
260 27 68 37 229 20 311 -27 131 -113 249 -221 304 -102 52 -247 67 -362 40z
m242 -209 c25 -16 50 -46 67 -79 26 -49 28 -60 28 -177 0 -117 -2 -128 -28
-177 -63 -121 -220 -151 -322 -62 -57 50 -79 118 -79 239 0 113 18 176 67 229
61 66 188 79 267 27z"/>
<path d="M11513 2996 c-64 -21 -128 -62 -162 -103 l-31 -38 0 63 0 62 -120 0
-120 0 0 -450 0 -450 125 0 125 0 0 238 c1 130 4 267 9 303 17 132 62 181 170
187 84 6 122 -14 153 -77 22 -44 23 -58 26 -348 l4 -303 125 0 125 0 -5 338
c-3 288 -7 345 -22 395 -23 75 -78 137 -147 167 -66 28 -193 36 -255 16z"/>
<path d="M9570 2530 l0 -450 125 0 125 0 0 450 0 450 -125 0 -125 0 0 -450z"/>
</g>
</svg>
